<svg width="30" height="30" viewBox="0 0 30 30" version="1.1" xmlns="http://www.w3.org/2000/svg" xmlns:svg="http://www.w3.org/2000/svg">
<path fill="#5555ff" d="M 15,3 C 8.3835298,3 3,8.3835298 3,15 3,21.61647 8.3835298,27 15,27 21.61647,27 27,21.61647 27,15 27,8.3835298 21.61647,3 15,3 Z m 0,1.8461538 C 20.618737,4.8461538 25.153846,9.3812634 25.153846,15 25.153846,20.618737 20.618737,25.153846 15,25.153846 9.3812634,25.153846 4.8461538,20.618737 4.8461538,15 4.8461538,9.3812634 9.3812634,4.8461538 15,4.8461538 Z m 0,1.8461539 A 8.3076923,8.3076923 0 0 0 6.6923077,15 8.3076923,8.3076923 0 0 0 15,23.307692 8.3076923,8.3076923 0 0 0 23.307692,15 8.3076923,8.3076923 0 0 0 15,6.6923077 Z"/>
</svg>