<svg width="300" height="1040" viewBox="0 0 300 1040" version="1.1" xmlns="http://www.w3.org/2000/svg" xmlns:svg="http://www.w3.org/2000/svg">
<path fill="#e4e4e4" d="M 18 0 C 8.0799214 0 0 8.0799214 0 18 C 0 27.920078 8.0799214 36 18 36 L 22 36 L 22 1004 L 18 1004 C 8.0799214 1004 0 1012.0799 0 1022 C 0 1031.9201 8.0799214 1040 18 1040 L 282 1040 C 291.92008 1040 300 1031.9201 300 1022 C 300 1012.0799 291.92008 1004 282 1004 L 278 1004 L 278 36 L 282 36 C 291.92008 36 300 27.920078 300 18 C 300 8.0799214 291.92008 0 282 0 L 18 0 z M 18 6 L 282 6 C 288.69986 6 294 11.300129 294 18 C 294 24.699871 288.69986 30 282 30 L 272 30 L 272 1010 L 282 1010 C 288.69986 1010 294 1015.3001 294 1022 C 294 1028.6999 288.69986 1034 282 1034 L 18 1034 C 11.300129 1034 6 1028.6999 6 1022 C 6 1015.3001 11.300129 1010 18 1010 L 28 1010 L 28 30 L 18 30 C 11.300129 30 6 24.699871 6 18 C 6 11.300129 11.300129 6 18 6 z "/>
</svg>